<svg width="290" height="290" viewBox="0 0 290 290" fill="none" xmlns="http://www.w3.org/2000/svg">
<path d="M70.5002 193.066L70.4924 193.686L70.8366 194.202C86.8372 218.172 114.031 234 145 234C175.969 234 203.163 218.172 219.163 194.202L219.509 193.684L219.5 193.061C219.398 186.344 215.951 180.54 210.775 175.697C205.608 170.862 198.581 166.848 190.926 163.644C175.624 157.239 157.328 153.875 145 153.875C132.672 153.875 114.361 157.239 99.0516 163.644C91.3927 166.848 84.3638 170.862 79.1988 175.698C74.0258 180.541 70.5848 186.347 70.5002 193.066ZM26.1667 145C26.1667 79.3442 79.3442 26.1667 145 26.1667C210.656 26.1667 263.833 79.3442 263.833 145C263.833 210.656 210.656 263.833 145 263.833C79.3442 263.833 26.1667 210.656 26.1667 145ZM183.25 96.6667C183.25 75.5642 166.103 58.4167 145 58.4167C123.898 58.4167 106.75 75.5642 106.75 96.6667C106.75 117.832 123.9 134.917 145 134.917C166.1 134.917 183.25 117.832 183.25 96.6667Z" fill="#FFAA46" stroke="white" stroke-width="4"/>
</svg>
